{
   "accessors" : [
      {
         "bufferView" : 0,
         "byteOffset" : 0,
         "componentType" : 5123,
         "count" : 104496,
         "max" : [ 19085 ],
         "min" : [ 0 ],
         "name" : "buffer-0-group-0-mesh-0-indices",
         "type" : "SCALAR"
      },
      {
         "bufferView" : 1,
         "byteOffset" : 0,
         "componentType" : 5126,
         "count" : 19086,
         "max" : [ 9.617035865783691, 6.459360122680664, 26.87672424316406 ],
         "min" : [ -10.05605506896973, -6.213558197021484, -38.246337890625 ],
         "name" : "buffer-0-group-0-mesh-0-position",
         "type" : "VEC3"
      },
      {
         "bufferView" : 1,
         "byteOffset" : 229032,
         "componentType" : 5126,
         "count" : 19086,
         "max" : [ 0.9999669790267944, 0.9999464750289917, 0.9999758005142212 ],
         "min" : [ -0.9998613595962524, -0.999997615814209, -0.9997497200965881 ],
         "name" : "buffer-0-group-0-mesh-0-normal",
         "type" : "VEC3"
      },
      {
         "bufferView" : 2,
         "byteOffset" : 0,
         "componentType" : 5126,
         "count" : 19086,
         "max" : [ 1, -0.01454299967736006 ],
         "min" : [ 0, -1 ],
         "name" : "buffer-0-group-0-mesh-0-texcoord",
         "type" : "VEC2"
      },
      {
         "bufferView" : 0,
         "byteOffset" : 208992,
         "componentType" : 5123,
         "count" : 36,
         "max" : [ 23 ],
         "min" : [ 0 ],
         "name" : "buffer-0-group-1-mesh-0-indices",
         "type" : "SCALAR"
      },
      {
         "bufferView" : 1,
         "byteOffset" : 458064,
         "componentType" : 5126,
         "count" : 24,
         "max" : [ 1, 1, 1.000000953674316 ],
         "min" : [ -1, -1, -1 ],
         "name" : "buffer-0-group-1-mesh-0-position",
         "type" : "VEC3"
      },
      {
         "bufferView" : 1,
         "byteOffset" : 458352,
         "componentType" : 5126,
         "count" : 24,
         "max" : [ 1, 1, 1 ],
         "min" : [ -1, -1, -1 ],
         "name" : "buffer-0-group-1-mesh-0-normal",
         "type" : "VEC3"
      }
   ],
   "asset" : {
      "extras" : {
         "GOOGLE_processor_version" : 294144208
      },
      "generator" : "Obj2GltfConverter",
      "version" : "2.0"
   },
   "bufferViews" : [
      {
         "buffer" : 0,
         "byteLength" : 209064,
         "byteOffset" : 0,
         "name" : "buffer-0-bufferview-ushort",
         "target" : 34963
      },
      {
         "buffer" : 0,
         "byteLength" : 458640,
         "byteOffset" : 209064,
         "byteStride" : 12,
         "name" : "buffer-0-bufferview-vec3",
         "target" : 34962
      },
      {
         "buffer" : 0,
         "byteLength" : 152688,
         "byteOffset" : 667704,
         "byteStride" : 8,
         "name" : "buffer-0-bufferview-vec2",
         "target" : 34962
      }
   ],
   "buffers" : [
      {
         "byteLength" : 820392,
         "name" : "buffer-0",
         "uri" : "patrick.bin"
      }
   ],
   "cameras" : [
      {
         "perspective" : {
            "yfov" : 0.7853981633974483,
            "znear" : 0.1000000014901161
         },
         "type" : "perspective"
      }
   ],
   "extensions" : {
      "KHR_lights_punctual" : {
         "lights" : [
            {
               "color" : [ 1, 0.9333333333333333, 0.8666666666666667 ],
               "intensity" : 0.25,
               "name" : "headLight",
               "type" : "directional"
            },
            {
               "color" : [ 1, 0.9333333333333333, 0.8666666666666667 ],
               "intensity" : 0.324999988079071,
               "name" : "keyLight",
               "type" : "directional"
            }
         ]
      }
   },
   "extensionsUsed" : [ "GOOGLE_backgrounds", "GOOGLE_camera_settings", "KHR_lights_punctual" ],
   "extras" : {
      "GOOGLE_initial_camera_motion" : {
         "motionPath" : "FULL_ROTATION"
      },
      "GOOGLE_lighting_rig" : {
         "disableShadows" : false
      }
   },
   "images" : [
      {
         "mimeType" : "image/png",
         "name" : "patrick-diffuse-image",
         "uri" : "patrick.png"
      }
   ],
   "materials" : [
      {
         "alphaMode" : "BLEND",
         "doubleSided" : true,
         "name" : "patrick",
         "pbrMetallicRoughness" : {
            "baseColorFactor" : [ 0.64, 0.64, 0.64, 1 ],
            "baseColorTexture" : {
               "index" : 0,
               "texCoord" : 0
            },
            "metallicFactor" : 0,
            "roughnessFactor" : 0.7448017359246658
         }
      },
      {
         "alphaMode" : "OPAQUE",
         "doubleSided" : true,
         "name" : "Material",
         "pbrMetallicRoughness" : {
            "baseColorFactor" : [ 0.64, 0.64, 0.64, 1 ],
            "metallicFactor" : 0,
            "roughnessFactor" : 0.7448017359246658
         }
      }
   ],
   "meshes" : [
      {
         "name" : "buffer-0-mesh-0",
         "primitives" : [
            {
               "attributes" : {
                  "NORMAL" : 2,
                  "POSITION" : 1,
                  "TEXCOORD_0" : 3
               },
               "indices" : 0,
               "material" : 0,
               "mode" : 4
            },
            {
               "attributes" : {
                  "NORMAL" : 6,
                  "POSITION" : 5
               },
               "indices" : 4,
               "material" : 1,
               "mode" : 4
            }
         ]
      }
   ],
   "nodes" : [
      {
         "mesh" : 0,
         "name" : "node-0"
      },
      {
         "children" : [ 2 ]
      },
      {
         "children" : [ 3 ],
         "extras" : {
            "isTransformNode" : 1
         },
         "rotation" : [ 0.7071067811865475, 0, 0, 0.7071067811865476 ],
         "translation" : [ -0.2640448690390438, 0.1824766495446569, -7.479261850318773 ]
      },
      {
         "children" : [ 0 ],
         "translation" : [ 0.2640448690390438, -0.1824766495446569, 7.479261850318773 ]
      },
      {
         "camera" : 0,
         "children" : [ 5 ],
         "rotation" : [
            -0.1057809651740631,
            0.169843318703238,
            0.01834022680081405,
            0.9796056709613359
         ],
         "translation" : [ 32.38874765788403, 21.39052337289981, 83.87273148983685 ]
      },
      {
         "extensions" : {
            "KHR_lights_punctual" : {
               "light" : 0
            }
         },
         "extras" : {
            "isHeadLight" : 1
         },
         "name" : "headLightNode",
         "translation" : [ -41.10102765167522, 20.55051382583761, 20.55051382583761 ]
      },
      {
         "extensions" : {
            "KHR_lights_punctual" : {
               "light" : 1
            }
         },
         "extras" : {
            "isKeyLight" : 1
         },
         "name" : "keyLightNode",
         "rotation" : [ -0.7505326882858236, -0.3752663441429118, 0, 0.5439447166468927 ],
         "scale" : [ 0, 0, 41.51203792819198 ],
         "translation" : [ -41.67651404534524, 85.80160455008523, -47.49373061139405 ]
      }
   ],
   "samplers" : [
      {
         "name" : "patrick-diffuse-sampler",
         "wrapS" : 10497,
         "wrapT" : 10497
      }
   ],
   "scene" : 0,
   "scenes" : [
      {
         "extensions" : {
            "GOOGLE_backgrounds" : {
               "color" : [ 0.9803921568627451, 0.9803921568627451, 0.9803921568627451 ]
            },
            "GOOGLE_camera_settings" : {
               "pivot" : [ -0.2694559373894592, 0.1918920643127926, -7.477535928260721 ]
            }
         },
         "extras" : {
            "GOOGLE_camera_index" : {
               "cameraIndex" : 0,
               "nodeIndex" : 4
            },
            "GOOGLE_geometry_data" : {
               "stats" : {
                  "centroid" : [ -0.1644761171532671, 2.777528693701275, -5.981692683202067 ],
                  "radius" : 41.10102765167522,
                  "stdev" : 20.07031654442546
               },
               "visualCenterPoint" : [ -0.2640448690390438, 0.1824766495446569, -7.479261850318773 ]
            },
            "GOOGLE_hemi_light" : {
               "groundColor" : [ 0.9803921568627451, 0.9803921568627451, 0.9803921568627451 ]
            }
         },
         "name" : "scene-0",
         "nodes" : [ 1, 4, 6 ]
      }
   ],
   "textures" : [
      {
         "name" : "patrick-diffuse-texture",
         "sampler" : 0,
         "source" : 0
      }
   ]
}
